<svg width="22" height="22" viewBox="0 0 22 22" fill="none" xmlns="http://www.w3.org/2000/svg">
<g id="fi-rr-angle-small-left">
<path id="Vector" d="M11.6509 12.2835C11.5656 12.3694 11.4643 12.4376 11.3526 12.4842C11.2409 12.5307 11.121 12.5547 11 12.5547C10.879 12.5547 10.7592 12.5307 10.6475 12.4842C10.5358 12.4376 10.4344 12.3694 10.3492 12.2835L6.15085 8.076C6.06564 7.99008 5.96425 7.92189 5.85255 7.87535C5.74085 7.82881 5.62103 7.80485 5.50002 7.80485C5.37901 7.80485 5.2592 7.82881 5.14749 7.87535C5.03579 7.92189 4.9344 7.99008 4.84919 8.076C4.67846 8.24775 4.58263 8.48008 4.58263 8.72225C4.58263 8.96442 4.67846 9.19675 4.84919 9.3685L9.05669 13.576C9.57232 14.091 10.2713 14.3802 11 14.3802C11.7288 14.3802 12.4277 14.091 12.9434 13.576L17.1509 9.3685C17.3202 9.19776 17.4157 8.96731 17.4167 8.72684C17.4174 8.6062 17.3943 8.4866 17.3487 8.37492C17.303 8.26324 17.2358 8.16166 17.1509 8.076C17.0657 7.99008 16.9643 7.92189 16.8526 7.87535C16.7409 7.82881 16.621 7.80485 16.5 7.80485C16.379 7.80485 16.2592 7.82881 16.1475 7.87535C16.0358 7.92189 15.9344 7.99008 15.8492 8.076L11.6509 12.2835Z" fill="white"/>
</g>
</svg>
